<?xml version="1.0" encoding="UTF-8" standalone="no"?>
<!-- Created with Inkscape (http://www.inkscape.org/) -->

<svg
   width="65.427185mm"
   height="60.400269mm"
   viewBox="0 0 65.427185 60.400269"
   version="1.1"
   id="svg5"
   xml:space="preserve"
   inkscape:version="1.2.1 (9c6d41e410, 2022-07-14)"
   sodipodi:docname="pinojr_sahne.svg"
   xmlns:inkscape="http://www.inkscape.org/namespaces/inkscape"
   xmlns:sodipodi="http://sodipodi.sourceforge.net/DTD/sodipodi-0.dtd"
   xmlns="http://www.w3.org/2000/svg"
   xmlns:svg="http://www.w3.org/2000/svg"><sodipodi:namedview
     id="namedview7"
     pagecolor="#ffffff"
     bordercolor="#000000"
     borderopacity="0.25"
     inkscape:showpageshadow="2"
     inkscape:pageopacity="0.0"
     inkscape:pagecheckerboard="0"
     inkscape:deskcolor="#d1d1d1"
     inkscape:document-units="mm"
     showgrid="false"
     inkscape:zoom="0.50000001"
     inkscape:cx="-1095"
     inkscape:cy="8467.9998"
     inkscape:window-width="1920"
     inkscape:window-height="1009"
     inkscape:window-x="-8"
     inkscape:window-y="-8"
     inkscape:window-maximized="1"
     inkscape:current-layer="svg5"
     showguides="true" /><defs
     id="defs2" /><g
     inkscape:label="Katman 1"
     inkscape:groupmode="layer"
     id="layer1"
     transform="translate(-347.82423,-1516.5798)"><path
       id="rect24727-2-4-1-5-2-89"
       style="fill:#89ea00;fill-opacity:1;stroke:#1e1766;stroke-width:1.256;stroke-opacity:1"
       d="m 353.08183,1517.3949 c 17.94,0.4939 35.37056,-0.1865 53.80509,-0.1871 2.34419,-10e-5 5.79394,2.0752 5.7281,4.4185 -0.50394,17.9341 -0.96132,35.7595 0,50.2747 0.15491,2.3391 -1.8872,4.2313 -4.23139,4.2314 -18.42554,6e-4 -29.95281,0.4939 -55.3018,0 -2.34375,-0.046 -4.04866,-1.8943 -4.23139,-4.2314 -0.93383,-11.9433 0.0299,-23.9579 0.33521,-36.3142 0.1122,-4.5411 -0.35,-9.4519 -0.33521,-13.9605 0.008,-2.3442 1.88809,-4.2959 4.23139,-4.2314 z"
       sodipodi:nodetypes="ssssssssss"
       inkscape:export-filename="..\HorizontalBlocks\images\world\world1.png"
       inkscape:export-xdpi="96"
       inkscape:export-ydpi="96" /></g></svg>
